<svg viewBox="0 0 47.8865 26" fill="none" xmlns="http://www.w3.org/2000/svg">
  <path d="M9.84171 26C6.94995 26 4.58065 25.326 2.73381 23.9777C0.911269 22.6056 0 20.6556 0 18.1277C0 17.5981 0.0607512 16.9481 0.182254 16.1777C0.49816 14.4444 0.947721 12.362 1.53093 9.93056C3.18337 3.31019 7.44811 0 14.3252 0C16.1963 0 17.873 0.312963 19.3554 0.93889C20.8377 1.54075 22.0041 2.45556 22.8546 3.68333C23.7051 4.88704 24.1304 6.33148 24.1304 8.01667C24.1304 8.52223 24.0697 9.16019 23.9482 9.93056C23.5836 12.0732 23.1462 14.1556 22.636 16.1777C21.7854 19.4759 20.3152 21.9435 18.2254 23.5806C16.1355 25.1935 13.341 26 9.84171 26ZM10.352 20.8C11.7129 20.8 12.8671 20.4027 13.8149 19.6083C14.7868 18.8139 15.4794 17.5981 15.8925 15.9611C16.4515 13.6981 16.8767 11.7241 17.1684 10.0389C17.2656 9.53333 17.3142 9.01573 17.3142 8.48611C17.3142 6.29537 16.1598 5.2 13.8513 5.2C12.4905 5.2 11.324 5.59723 10.352 6.39167C9.4043 7.18611 8.72388 8.40185 8.31078 10.0389C7.87337 11.6518 7.43596 13.6259 6.99855 15.9611C6.90134 16.4425 6.85274 16.9481 6.85274 17.4777C6.85274 19.6925 8.01917 20.8 10.352 20.8Z" fill="#FF0420"/>
  <path d="M23.829 25.6389C23.5616 25.6389 23.3551 25.5546 23.2093 25.3861C23.0878 25.1935 23.0513 24.9769 23.0999 24.7361L28.1301 1.26389C28.1787 0.999073 28.3124 0.782407 28.5311 0.61389C28.7498 0.445371 28.9807 0.361111 29.2237 0.361111H38.9195C41.6169 0.361111 43.7796 0.914814 45.4078 2.02223C47.0602 3.12963 47.8865 4.73056 47.8865 6.825C47.8865 7.42685 47.8136 8.05277 47.6678 8.70277C47.0602 11.4713 45.8331 13.5175 43.9862 14.8417C42.1637 16.1658 39.6607 16.8277 36.4773 16.8277H31.5565L29.8798 24.7361C29.8312 25.0009 29.6975 25.2175 29.4788 25.3861C29.2601 25.5546 29.0293 25.6389 28.7862 25.6389H23.829ZM36.7325 11.8444C37.7532 11.8444 38.6401 11.5676 39.3934 11.0139C40.1711 10.4602 40.6814 9.66573 40.9244 8.63056C40.9972 8.22129 41.0338 7.86019 41.0338 7.54721C41.0338 6.84908 40.8272 6.31944 40.4141 5.95833C40.001 5.57315 39.2962 5.38056 38.3 5.38056H33.9258L32.5407 11.8444H36.7325Z" fill="#FF0420"/>
</svg>
