<svg width="124" height="29" viewBox="0 0 124 29" fill="none" xmlns="http://www.w3.org/2000/svg">
<g clip-path="url(#clip0_914_215)">
<path fill-rule="evenodd" clip-rule="evenodd" d="M5.70328 5.21943C6.27129 5.14625 6.84711 5.14625 7.4151 5.21945C7.66571 5.25175 7.84225 5.47787 7.80943 5.72449C7.77663 5.97113 7.54688 6.14489 7.29629 6.11259C6.80716 6.04956 6.31122 6.04954 5.82209 6.11257C5.57148 6.14487 5.34175 5.97111 5.30895 5.72447C5.27613 5.47783 5.45268 5.25173 5.70328 5.21943ZM3.20744 6.58044C3.36155 6.7776 3.32406 7.06037 3.12374 7.21203C2.9309 7.35802 2.74528 7.51806 2.56833 7.69222C2.39137 7.86637 2.22876 8.04904 2.08043 8.23883C1.92633 8.43599 1.63901 8.47287 1.43869 8.3212C1.23837 8.16954 1.2009 7.88677 1.35499 7.68961C1.5274 7.46904 1.71615 7.25704 1.92117 7.05527C2.12619 6.8535 2.34159 6.66772 2.56572 6.49805C2.76604 6.3464 3.05335 6.38328 3.20744 6.58044ZM9.91092 6.5805C10.065 6.38334 10.3523 6.34648 10.5526 6.49813C10.7768 6.66782 10.9922 6.85358 11.1972 7.05537C11.4022 7.25714 11.5909 7.46913 11.7633 7.68971C11.9174 7.88687 11.88 8.16964 11.6796 8.32132C11.4793 8.47297 11.192 8.43607 11.0379 8.23893C10.8896 8.04913 10.727 7.86645 10.55 7.6923C10.3731 7.51814 10.1875 7.35808 9.99462 7.21209C9.79429 7.06043 9.75681 6.77766 9.91092 6.5805ZM0.568937 10.3895C0.81953 10.4218 0.996078 10.6479 0.963265 10.8945C0.899219 11.3759 0.899215 11.864 0.963249 12.3454C0.996058 12.5921 0.819505 12.8182 0.568911 12.8505C0.318316 12.8828 0.0885734 12.709 0.0557663 12.4624C-0.0185946 11.9033 -0.0185887 11.3366 0.0557837 10.7776C0.0885961 10.5309 0.318342 10.3572 0.568937 10.3895ZM1.43863 14.9187C1.63895 14.7671 1.92626 14.804 2.08035 15.0011C2.22868 15.1909 2.39129 15.3736 2.56825 15.5478C2.7452 15.7219 2.9308 15.882 3.12363 16.028C3.32396 16.1796 3.36145 16.4624 3.20734 16.6596C3.05325 16.8567 2.76594 16.8936 2.56561 16.7419C2.34149 16.5722 2.12609 16.3865 1.92108 16.1847C1.71606 15.9829 1.52732 15.7709 1.35491 15.5503C1.20082 15.3532 1.2383 15.0704 1.43863 14.9187ZM11.6796 14.9189C11.8799 15.0705 11.9174 15.3533 11.7633 15.5504C11.5908 15.771 11.4021 15.983 11.1971 16.1848C10.9921 16.3866 10.7767 16.5723 10.5525 16.742C10.3522 16.8937 10.0649 16.8568 9.91082 16.6596C9.75673 16.4625 9.79419 16.1797 9.99452 16.028C10.1874 15.882 10.373 15.722 10.5499 15.5478C10.7269 15.3737 10.8895 15.191 11.0378 15.0012C11.1919 14.8041 11.4792 14.7672 11.6796 14.9189ZM5.30881 17.5156C5.34163 17.2689 5.57138 17.0952 5.82197 17.1275C6.3111 17.1905 6.80704 17.1905 7.29616 17.1275C7.54678 17.0952 7.77651 17.2689 7.80933 17.5156C7.84213 17.7622 7.66557 17.9883 7.41498 18.0206C6.84697 18.0938 6.27114 18.0938 5.70316 18.0206C5.45254 17.9883 5.27601 17.7622 5.30881 17.5156Z" fill="#10111A"/>
<path fill-rule="evenodd" clip-rule="evenodd" d="M19.1343 6.81648C16.4421 5.27646 13.0087 6.18082 11.4639 8.83182C9.9187 11.4835 10.8453 14.8832 13.5382 16.4236C16.2305 17.9636 19.6639 17.0592 21.2087 14.4082C22.7539 11.7566 21.8272 8.35687 19.1343 6.81648ZM10.6741 8.38226C12.4721 5.29684 16.465 4.24884 19.5909 6.03687C22.7159 7.82454 23.796 11.773 21.9985 14.8578C20.2006 17.9432 16.2075 18.9912 13.0817 17.2032C9.95655 15.4155 8.87656 11.467 10.6741 8.38226Z" fill="#10111A"/>
<path fill-rule="evenodd" clip-rule="evenodd" d="M29.8514 6.03716C26.7241 4.24831 22.7324 5.29772 20.9355 8.38105C19.1388 11.4644 20.2174 15.4141 23.3448 17.2029C26.4719 18.9918 30.4636 17.9424 32.2605 14.859C34.0572 11.7757 32.9786 7.826 29.8514 6.03716Z" fill="#10111A"/>
<path d="M110.01 23.0412V5.22273H112.937L113.145 7.45005H113.248C113.576 6.92096 113.965 6.46866 114.414 6.09317C114.88 5.7177 115.407 5.42754 115.994 5.22273C116.599 5.01792 117.255 4.91553 117.963 4.91553C119.189 4.91553 120.251 5.20567 121.149 5.78596C122.047 6.34918 122.747 7.13429 123.248 8.14128C123.749 9.14826 123.999 10.2918 123.999 11.5718C123.999 12.8519 123.749 13.9954 123.248 15.0024C122.747 16.0094 122.039 16.803 121.124 17.3833C120.208 17.9465 119.12 18.2282 117.859 18.2282C116.858 18.2282 115.985 18.0404 115.243 17.6649C114.518 17.2724 113.939 16.8115 113.507 16.2825V23.0412H110.01ZM116.953 15.412C117.661 15.412 118.274 15.2499 118.792 14.9256C119.327 14.6013 119.733 14.1576 120.01 13.5943C120.303 13.014 120.45 12.3484 120.45 11.5974C120.45 10.8294 120.303 10.1638 120.01 9.60054C119.733 9.02024 119.327 8.56796 118.792 8.24367C118.274 7.91939 117.661 7.75725 116.953 7.75725C116.262 7.75725 115.649 7.91939 115.113 8.24367C114.578 8.56796 114.163 9.02024 113.87 9.60054C113.576 10.1638 113.429 10.8294 113.429 11.5974C113.429 12.3484 113.576 13.014 113.87 13.5943C114.163 14.1576 114.578 14.6013 115.113 14.9256C115.649 15.2499 116.262 15.412 116.953 15.412Z" fill="#10111A"/>
<path d="M100.363 18.3052C99.3096 18.3052 98.4116 18.0833 97.6688 17.6396C96.9262 17.1958 96.3563 16.5387 95.9592 15.6683C95.5618 14.7808 95.3633 13.697 95.3633 12.4169V5.2998H98.8347V12.1097C98.8347 13.1679 99.0505 13.9786 99.4824 14.5418C99.9314 15.1051 100.622 15.3867 101.555 15.3867C102.159 15.3867 102.686 15.2501 103.135 14.9771C103.602 14.6869 103.964 14.2773 104.223 13.7482C104.482 13.2191 104.612 12.5876 104.612 11.8537V5.2998H108.109V17.998H105.13L104.819 15.9755H104.716C104.318 16.6924 103.757 17.2641 103.032 17.6908C102.323 18.1004 101.434 18.3052 100.363 18.3052Z" fill="#10111A"/>
<path d="M87.6374 18.1066C86.3249 18.1066 85.159 17.8335 84.1401 17.2873C83.1384 16.7412 82.3526 15.9731 81.7827 14.9832C81.2127 13.9933 80.9277 12.8583 80.9277 11.5783C80.9277 10.247 81.2041 9.07788 81.7567 8.07089C82.3267 7.04685 83.1125 6.24468 84.1142 5.66438C85.1333 5.08408 86.3076 4.79395 87.6374 4.79395C88.9329 4.79395 90.0639 5.06702 91.0312 5.61318C91.9983 6.15933 92.7584 6.91031 93.3111 7.86608C93.8637 8.80478 94.1401 9.87151 94.1401 11.0662C94.1401 11.2369 94.1314 11.4332 94.1141 11.6551C94.1141 11.8599 94.1055 12.0732 94.0882 12.2951H83.4148V10.1702H90.5909C90.539 9.36802 90.2368 8.72799 89.6841 8.25009C89.1487 7.77221 88.4751 7.53327 87.6633 7.53327C87.0588 7.53327 86.5061 7.66981 86.0053 7.94289C85.5045 8.1989 85.1074 8.59998 84.8137 9.14615C84.5201 9.67524 84.3732 10.3494 84.3732 11.1686V11.9111C84.3732 12.6108 84.5115 13.2167 84.7878 13.7288C85.0641 14.2237 85.444 14.6077 85.9277 14.8808C86.4286 15.1539 86.9899 15.2904 87.6115 15.2904C88.2506 15.2904 88.786 15.1539 89.2178 14.8808C89.6495 14.5907 89.9777 14.2237 90.2022 13.78H93.7514C93.5096 14.5821 93.1037 15.316 92.5337 15.9817C91.9639 16.6302 91.2644 17.1508 90.4353 17.5433C89.6063 17.9188 88.6738 18.1066 87.6374 18.1066Z" fill="#10111A"/>
<path d="M77.9465 17.9208L72.3249 10.9317L77.2731 5.22264H81.4181L75.0192 12.3654L74.9932 9.62605L82.2729 17.9208H77.9465ZM69.3457 17.9208V0H72.843V17.9208H69.3457Z" fill="#10111A"/>
<path d="M59.7079 18.2282C58.6888 18.2282 57.8425 18.0575 57.169 17.7161C56.5127 17.3748 56.0291 16.914 55.7182 16.3337C55.4073 15.7534 55.252 15.1133 55.252 14.4136C55.252 13.6285 55.4505 12.9372 55.8478 12.3399C56.2622 11.7425 56.8841 11.2817 57.7131 10.9574C58.5421 10.6161 59.5869 10.4454 60.8476 10.4454H64.0859C64.0859 9.81389 63.991 9.29334 63.8011 8.8837C63.6283 8.47409 63.3519 8.16688 62.9721 7.96206C62.6094 7.75725 62.1431 7.65486 61.5731 7.65486C60.8995 7.65486 60.3209 7.80846 59.8373 8.11568C59.3711 8.40582 59.0775 8.86664 58.9565 9.49814H55.5629C55.6664 8.55942 55.9773 7.74873 56.4954 7.06602C57.0308 6.38332 57.7303 5.85423 58.5939 5.47874C59.4746 5.10325 60.4678 4.91553 61.5731 4.91553C62.8166 4.91553 63.8873 5.12033 64.7855 5.52995C65.6836 5.9225 66.3744 6.51132 66.8579 7.29643C67.3417 8.06447 67.5834 9.00318 67.5834 10.1126V17.9209H64.6818L64.3192 15.9496H64.2155C63.9392 16.3251 63.6369 16.6579 63.3087 16.9481C62.9978 17.2382 62.6526 17.4772 62.2725 17.6649C61.8927 17.8527 61.4867 17.9892 61.055 18.0746C60.6231 18.1769 60.1742 18.2282 59.7079 18.2282ZM60.8476 15.5656C61.3314 15.5656 61.7458 15.4888 62.0912 15.3352C62.4538 15.1645 62.7647 14.9427 63.0238 14.6696C63.2828 14.3965 63.4816 14.0808 63.6196 13.7223C63.7752 13.3469 63.8787 12.9628 63.9305 12.5703H61.2363C60.7009 12.5703 60.2606 12.6385 59.9151 12.7751C59.5869 12.8946 59.3452 13.0738 59.1896 13.3127C59.0343 13.5346 58.9565 13.7991 58.9565 14.1064C58.9565 14.4136 59.0343 14.6781 59.1896 14.9C59.3452 15.1219 59.5696 15.2925 59.8633 15.412C60.1569 15.5144 60.4851 15.5656 60.8476 15.5656Z" fill="#10111A"/>
<path d="M38.3107 17.9209L34.9688 5.22266H38.4142L40.5644 15.4888H40.6681L43.0515 5.22266H47.0412L49.4504 15.4632H49.5541L51.6784 5.22266H55.1498L51.756 17.9209H47.5852L45.0982 7.75718H44.9945L42.4047 17.9209H38.3107Z" fill="#10111A"/>
<path d="M106.636 28.8347C106.316 28.8347 106.034 28.7819 105.789 28.6764C105.549 28.5708 105.354 28.4204 105.205 28.2253C105.061 28.0247 104.973 27.7874 104.941 27.5129H105.517C105.549 27.666 105.61 27.8058 105.701 27.9324C105.797 28.0591 105.924 28.162 106.084 28.241C106.244 28.3149 106.433 28.3519 106.652 28.3519C106.854 28.3519 107.019 28.3229 107.147 28.2649C107.28 28.2015 107.379 28.1197 107.443 28.0196C107.512 27.9139 107.547 27.7979 107.547 27.6712C107.547 27.4972 107.504 27.3625 107.419 27.2675C107.339 27.1674 107.222 27.0936 107.067 27.0461C106.913 26.9986 106.726 26.9537 106.508 26.9114C106.327 26.8798 106.153 26.8375 105.988 26.7849C105.823 26.732 105.674 26.6635 105.541 26.5791C105.413 26.4947 105.312 26.389 105.237 26.2625C105.162 26.1306 105.125 25.9776 105.125 25.8034C105.125 25.5766 105.181 25.3788 105.293 25.2099C105.41 25.0357 105.575 24.9013 105.789 24.8061C106.002 24.706 106.252 24.6558 106.54 24.6558C106.95 24.6558 107.286 24.7587 107.547 24.9644C107.808 25.165 107.96 25.4604 108.002 25.8509H107.443C107.421 25.6346 107.331 25.4632 107.171 25.3365C107.011 25.2099 106.795 25.1466 106.524 25.1466C106.257 25.1466 106.052 25.202 105.908 25.3128C105.77 25.4183 105.701 25.5633 105.701 25.748C105.701 25.864 105.738 25.9643 105.812 26.0488C105.887 26.1332 105.996 26.2071 106.14 26.2704C106.289 26.3284 106.47 26.3785 106.684 26.4208C106.939 26.4683 107.174 26.5316 107.387 26.6107C107.605 26.6846 107.781 26.8006 107.914 26.9589C108.053 27.112 108.122 27.3309 108.122 27.6157C108.127 27.8533 108.069 28.0643 107.946 28.249C107.824 28.4337 107.651 28.5787 107.427 28.6844C107.203 28.7845 106.939 28.8347 106.636 28.8347Z" fill="#10111A"/>
<path d="M102.656 28.8345C102.421 28.8345 102.205 28.8001 102.008 28.7316C101.816 28.6577 101.648 28.56 101.505 28.4386C101.361 28.3121 101.246 28.1696 101.161 28.0113L101.113 28.7395H100.602V23.041H101.161V25.4707C101.294 25.2438 101.486 25.0514 101.736 24.893C101.987 24.7347 102.293 24.6555 102.656 24.6555C103.05 24.6555 103.393 24.7478 103.686 24.9326C103.979 25.1119 104.203 25.36 104.358 25.6764C104.518 25.9879 104.597 26.344 104.597 26.7451C104.597 27.1459 104.518 27.5048 104.358 27.8212C104.198 28.1379 103.971 28.386 103.678 28.5653C103.391 28.7447 103.05 28.8345 102.656 28.8345ZM102.616 28.3516C102.898 28.3516 103.143 28.2856 103.351 28.1538C103.558 28.0219 103.724 27.8346 103.846 27.5918C103.969 27.3491 104.03 27.0669 104.03 26.7451C104.03 26.4179 103.969 26.1355 103.846 25.8981C103.724 25.6554 103.556 25.4681 103.343 25.3362C103.135 25.2043 102.892 25.1384 102.616 25.1384C102.338 25.1384 102.091 25.2043 101.872 25.3362C101.659 25.4681 101.491 25.6554 101.369 25.8981C101.252 26.1408 101.193 26.4231 101.193 26.7451C101.193 27.072 101.252 27.3571 101.369 27.5998C101.491 27.8371 101.659 28.0219 101.872 28.1538C102.091 28.2856 102.338 28.3516 102.616 28.3516Z" fill="#10111A"/>
<path d="M98.0423 28.8347C97.7171 28.8347 97.4454 28.7765 97.2272 28.6605C97.0139 28.5445 96.8541 28.3942 96.7476 28.2095C96.6463 28.0247 96.5957 27.8215 96.5957 27.6001C96.5957 27.3256 96.665 27.0935 96.8035 26.9035C96.9474 26.7136 97.1472 26.5712 97.4028 26.4762C97.6586 26.3813 97.9569 26.3338 98.2979 26.3338H99.3848C99.3848 26.0752 99.3448 25.8563 99.265 25.6767C99.185 25.4974 99.0679 25.3629 98.9133 25.2731C98.7588 25.1782 98.5644 25.1307 98.3299 25.1307C98.0582 25.1307 97.8238 25.1992 97.6267 25.3365C97.4295 25.4737 97.3069 25.6741 97.2591 25.9379H96.6757C96.7076 25.6582 96.8035 25.4235 96.9633 25.2336C97.1285 25.0437 97.3311 24.9013 97.5706 24.8061C97.8104 24.706 98.0636 24.6558 98.3299 24.6558C98.7029 24.6558 99.0066 24.7271 99.2409 24.8695C99.4754 25.0067 99.6513 25.1966 99.7685 25.4394C99.8856 25.6821 99.9443 25.9618 99.9443 26.2784V28.7396H99.4328L99.4009 28.0116C99.3528 28.1225 99.2863 28.2279 99.2009 28.3282C99.1211 28.4283 99.0253 28.5155 98.9133 28.5892C98.8068 28.6631 98.6816 28.7211 98.5377 28.7634C98.3938 28.8109 98.2286 28.8347 98.0423 28.8347ZM98.1062 28.3519C98.3034 28.3519 98.479 28.3123 98.6336 28.2331C98.7933 28.1487 98.9292 28.0406 99.0411 27.9087C99.1531 27.7768 99.2383 27.6291 99.297 27.4654C99.3555 27.2965 99.3848 27.1225 99.3848 26.9432V26.8006H98.3379C98.0556 26.8006 97.8291 26.8349 97.6586 26.9035C97.4882 26.9722 97.3656 27.0646 97.2911 27.1806C97.2165 27.2966 97.1791 27.4312 97.1791 27.5842C97.1791 27.7371 97.2137 27.8718 97.283 27.9878C97.3524 28.0986 97.4561 28.1884 97.5947 28.2569C97.7386 28.3203 97.9091 28.3519 98.1062 28.3519Z" fill="#10111A"/>
<path d="M95.4609 28.7395V23.041H96.0204V28.7395H95.4609Z" fill="#10111A"/>
</g>
<defs>
<clipPath id="clip0_914_215">
<rect width="124" height="29" fill="white"/>
</clipPath>
</defs>
</svg>
