<svg width="244" height="58" viewBox="0 0 244 58" fill="none" xmlns="http://www.w3.org/2000/svg">
<rect width="244" height="58" rx="10" fill="#F7F7F7"/>
<g clip-path="url(#clip0_1081_141)">
<path fill-rule="evenodd" clip-rule="evenodd" d="M65.7033 28.2194C66.2713 28.1463 66.8471 28.1463 67.4151 28.2194C67.6657 28.2517 67.8422 28.4779 67.8094 28.7245C67.7766 28.9711 67.5469 29.1449 67.2963 29.1126C66.8072 29.0496 66.3112 29.0495 65.8221 29.1126C65.5715 29.1449 65.3417 28.9711 65.3089 28.7245C65.2761 28.4778 65.4527 28.2517 65.7033 28.2194ZM63.2074 29.5804C63.3615 29.7776 63.3241 30.0604 63.1237 30.212C62.9309 30.358 62.7453 30.5181 62.5683 30.6922C62.3914 30.8664 62.2288 31.049 62.0804 31.2388C61.9263 31.436 61.639 31.4729 61.4387 31.3212C61.2384 31.1695 61.2009 30.8868 61.355 30.6896C61.5274 30.469 61.7162 30.257 61.9212 30.0553C62.1262 29.8535 62.3416 29.6677 62.5657 29.4981C62.766 29.3464 63.0534 29.3833 63.2074 29.5804ZM69.9109 29.5805C70.065 29.3833 70.3523 29.3465 70.5526 29.4981C70.7768 29.6678 70.9922 29.8536 71.1972 30.0554C71.4022 30.2571 71.5909 30.4691 71.7633 30.6897C71.9174 30.8869 71.88 31.1696 71.6796 31.3213C71.4793 31.473 71.192 31.4361 71.0379 31.2389C70.8896 31.0491 70.727 30.8665 70.55 30.6923C70.3731 30.5181 70.1875 30.3581 69.9946 30.2121C69.7943 30.0604 69.7568 29.7777 69.9109 29.5805ZM60.5689 33.3895C60.8195 33.4218 60.9961 33.6479 60.9633 33.8945C60.8992 34.3759 60.8992 34.864 60.9632 35.3454C60.9961 35.5921 60.8195 35.8182 60.5689 35.8505C60.3183 35.8828 60.0886 35.709 60.0558 35.4624C59.9814 34.9033 59.9814 34.3366 60.0558 33.7776C60.0886 33.5309 60.3183 33.3572 60.5689 33.3895ZM61.4386 37.9187C61.639 37.7671 61.9263 37.804 62.0803 38.0011C62.2287 38.1909 62.3913 38.3736 62.5682 38.5478C62.7452 38.7219 62.9308 38.882 63.1236 39.028C63.324 39.1796 63.3614 39.4624 63.2073 39.6596C63.0533 39.8567 62.7659 39.8936 62.5656 39.7419C62.3415 39.5722 62.1261 39.3865 61.9211 39.1847C61.7161 38.9829 61.5273 38.7709 61.3549 38.5503C61.2008 38.3532 61.2383 38.0704 61.4386 37.9187ZM71.6796 37.9189C71.8799 38.0705 71.9174 38.3533 71.7633 38.5504C71.5908 38.771 71.4021 38.983 71.1971 39.1848C70.9921 39.3866 70.7767 39.5723 70.5525 39.742C70.3522 39.8937 70.0649 39.8568 69.9108 39.6596C69.7567 39.4625 69.7942 39.1797 69.9945 39.028C70.1874 38.882 70.373 38.722 70.5499 38.5478C70.7269 38.3737 70.8895 38.191 71.0378 38.0012C71.1919 37.8041 71.4792 37.7672 71.6796 37.9189ZM65.3088 40.5156C65.3416 40.2689 65.5714 40.0952 65.822 40.1275C66.3111 40.1905 66.807 40.1905 67.2962 40.1275C67.5468 40.0952 67.7765 40.2689 67.8093 40.5156C67.8421 40.7622 67.6656 40.9883 67.415 41.0206C66.847 41.0938 66.2711 41.0938 65.7032 41.0206C65.4525 40.9883 65.276 40.7622 65.3088 40.5156Z" fill="#10111A"/>
<path fill-rule="evenodd" clip-rule="evenodd" d="M79.1343 29.8165C76.4421 28.2765 73.0087 29.1808 71.4639 31.8318C69.9187 34.4835 70.8453 37.8832 73.5382 39.4236C76.2305 40.9636 79.6639 40.0592 81.2087 37.4082C82.7539 34.7566 81.8272 31.3569 79.1343 29.8165ZM70.6741 31.3823C72.4721 28.2968 76.465 27.2488 79.5909 29.0369C82.7159 30.8245 83.796 34.773 81.9985 37.8578C80.2006 40.9432 76.2075 41.9912 73.0817 40.2032C69.9565 38.4155 68.8766 34.467 70.6741 31.3823Z" fill="#10111A"/>
<path fill-rule="evenodd" clip-rule="evenodd" d="M89.8514 29.0372C86.7241 27.2483 82.7324 28.2977 80.9355 31.3811C79.1388 34.4644 80.2174 38.4141 83.3448 40.2029C86.4719 41.9918 90.4636 40.9424 92.2605 37.859C94.0572 34.7757 92.9786 30.826 89.8514 29.0372Z" fill="#10111A"/>
<path d="M170.01 46.0412V28.2227H172.937L173.145 30.45H173.248C173.576 29.921 173.965 29.4687 174.414 29.0932C174.88 28.7177 175.407 28.4275 175.994 28.2227C176.599 28.0179 177.255 27.9155 177.963 27.9155C179.189 27.9155 180.251 28.2057 181.149 28.786C182.047 29.3492 182.747 30.1343 183.248 31.1413C183.749 32.1483 183.999 33.2918 183.999 34.5718C183.999 35.8519 183.749 36.9954 183.248 38.0024C182.747 39.0094 182.039 39.803 181.124 40.3833C180.208 40.9465 179.12 41.2282 177.859 41.2282C176.858 41.2282 175.985 41.0404 175.243 40.6649C174.518 40.2724 173.939 39.8115 173.507 39.2825V46.0412H170.01ZM176.953 38.412C177.661 38.412 178.274 38.2499 178.792 37.9256C179.327 37.6013 179.733 37.1576 180.01 36.5943C180.303 36.014 180.45 35.3484 180.45 34.5974C180.45 33.8294 180.303 33.1638 180.01 32.6005C179.733 32.0202 179.327 31.568 178.792 31.2437C178.274 30.9194 177.661 30.7572 176.953 30.7572C176.262 30.7572 175.649 30.9194 175.113 31.2437C174.578 31.568 174.163 32.0202 173.87 32.6005C173.576 33.1638 173.429 33.8294 173.429 34.5974C173.429 35.3484 173.576 36.014 173.87 36.5943C174.163 37.1576 174.578 37.6013 175.113 37.9256C175.649 38.2499 176.262 38.412 176.953 38.412Z" fill="#10111A"/>
<path d="M160.363 41.3052C159.31 41.3052 158.412 41.0833 157.669 40.6396C156.926 40.1958 156.356 39.5387 155.959 38.6683C155.562 37.7808 155.363 36.697 155.363 35.4169V28.2998H158.835V35.1097C158.835 36.1679 159.051 36.9786 159.482 37.5418C159.931 38.1051 160.622 38.3867 161.555 38.3867C162.159 38.3867 162.686 38.2501 163.135 37.9771C163.602 37.6869 163.964 37.2773 164.223 36.7482C164.482 36.2191 164.612 35.5876 164.612 34.8537V28.2998H168.109V40.998H165.13L164.819 38.9755H164.716C164.318 39.6924 163.757 40.2641 163.032 40.6908C162.323 41.1004 161.434 41.3052 160.363 41.3052Z" fill="#10111A"/>
<path d="M147.637 41.1066C146.325 41.1066 145.159 40.8335 144.14 40.2873C143.138 39.7412 142.353 38.9731 141.783 37.9832C141.213 36.9933 140.928 35.8583 140.928 34.5783C140.928 33.247 141.204 32.0779 141.757 31.0709C142.327 30.0468 143.113 29.2447 144.114 28.6644C145.133 28.0841 146.308 27.7939 147.637 27.7939C148.933 27.7939 150.064 28.067 151.031 28.6132C151.998 29.1593 152.758 29.9103 153.311 30.8661C153.864 31.8048 154.14 32.8715 154.14 34.0662C154.14 34.2369 154.131 34.4332 154.114 34.6551C154.114 34.8599 154.106 35.0732 154.088 35.2951H143.415V33.1702H150.591C150.539 32.368 150.237 31.728 149.684 31.2501C149.149 30.7722 148.475 30.5333 147.663 30.5333C147.059 30.5333 146.506 30.6698 146.005 30.9429C145.504 31.1989 145.107 31.6 144.814 32.1462C144.52 32.6752 144.373 33.3494 144.373 34.1686V34.9111C144.373 35.6108 144.511 36.2167 144.788 36.7288C145.064 37.2237 145.444 37.6077 145.928 37.8808C146.429 38.1539 146.99 38.2904 147.611 38.2904C148.251 38.2904 148.786 38.1539 149.218 37.8808C149.65 37.5907 149.978 37.2237 150.202 36.78H153.751C153.51 37.5821 153.104 38.316 152.534 38.9817C151.964 39.6302 151.264 40.1508 150.435 40.5433C149.606 40.9188 148.674 41.1066 147.637 41.1066Z" fill="#10111A"/>
<path d="M137.947 40.9208L132.325 33.9317L137.273 28.2226H141.418L135.019 35.3654L134.993 32.6261L142.273 40.9208H137.947ZM129.346 40.9208V23H132.843V40.9208H129.346Z" fill="#10111A"/>
<path d="M119.708 41.2282C118.689 41.2282 117.842 41.0575 117.169 40.7161C116.513 40.3748 116.029 39.914 115.718 39.3337C115.407 38.7534 115.252 38.1133 115.252 37.4136C115.252 36.6285 115.451 35.9372 115.848 35.3399C116.262 34.7425 116.884 34.2817 117.713 33.9574C118.542 33.6161 119.587 33.4454 120.848 33.4454H124.086C124.086 32.8139 123.991 32.2933 123.801 31.8837C123.628 31.4741 123.352 31.1669 122.972 30.9621C122.609 30.7572 122.143 30.6549 121.573 30.6549C120.899 30.6549 120.321 30.8085 119.837 31.1157C119.371 31.4058 119.077 31.8666 118.956 32.4981H115.563C115.666 31.5594 115.977 30.7487 116.495 30.066C117.031 29.3833 117.73 28.8542 118.594 28.4787C119.475 28.1033 120.468 27.9155 121.573 27.9155C122.817 27.9155 123.887 28.1203 124.785 28.5299C125.684 28.9225 126.374 29.5113 126.858 30.2964C127.342 31.0645 127.583 32.0032 127.583 33.1126V40.9209H124.682L124.319 38.9496H124.216C123.939 39.3251 123.637 39.6579 123.309 39.9481C122.998 40.2382 122.653 40.4772 122.273 40.6649C121.893 40.8527 121.487 40.9892 121.055 41.0746C120.623 41.1769 120.174 41.2282 119.708 41.2282ZM120.848 38.5656C121.331 38.5656 121.746 38.4888 122.091 38.3352C122.454 38.1645 122.765 37.9427 123.024 37.6696C123.283 37.3965 123.482 37.0808 123.62 36.7223C123.775 36.3469 123.879 35.9628 123.931 35.5703H121.236C120.701 35.5703 120.261 35.6385 119.915 35.7751C119.587 35.8946 119.345 36.0738 119.19 36.3127C119.034 36.5346 118.956 36.7991 118.956 37.1064C118.956 37.4136 119.034 37.6781 119.19 37.9C119.345 38.1219 119.57 38.2925 119.863 38.412C120.157 38.5144 120.485 38.5656 120.848 38.5656Z" fill="#10111A"/>
<path d="M98.3107 40.9209L94.9688 28.2227H98.4142L100.564 38.4888H100.668L103.051 28.2227H107.041L109.45 38.4632H109.554L111.678 28.2227H115.15L111.756 40.9209H107.585L105.098 30.7572H104.994L102.405 40.9209H98.3107Z" fill="#10111A"/>
<path d="M166.636 51.8347C166.316 51.8347 166.034 51.7819 165.789 51.6764C165.549 51.5708 165.354 51.4204 165.205 51.2253C165.061 51.0247 164.973 50.7874 164.941 50.5129H165.517C165.549 50.666 165.61 50.8058 165.701 50.9324C165.797 51.0591 165.924 51.162 166.084 51.241C166.244 51.3149 166.433 51.3519 166.652 51.3519C166.854 51.3519 167.019 51.3229 167.147 51.2649C167.28 51.2015 167.379 51.1197 167.443 51.0196C167.512 50.9139 167.547 50.7979 167.547 50.6712C167.547 50.4972 167.504 50.3625 167.419 50.2675C167.339 50.1674 167.222 50.0936 167.067 50.0461C166.913 49.9986 166.726 49.9537 166.508 49.9114C166.327 49.8798 166.153 49.8375 165.988 49.7849C165.823 49.732 165.674 49.6635 165.541 49.5791C165.413 49.4947 165.312 49.389 165.237 49.2625C165.162 49.1306 165.125 48.9776 165.125 48.8034C165.125 48.5766 165.181 48.3788 165.293 48.2099C165.41 48.0357 165.575 47.9013 165.789 47.8061C166.002 47.706 166.252 47.6558 166.54 47.6558C166.95 47.6558 167.286 47.7587 167.547 47.9644C167.808 48.165 167.96 48.4604 168.002 48.8509H167.443C167.421 48.6346 167.331 48.4632 167.171 48.3365C167.011 48.2099 166.795 48.1466 166.524 48.1466C166.257 48.1466 166.052 48.202 165.908 48.3128C165.77 48.4183 165.701 48.5633 165.701 48.748C165.701 48.864 165.738 48.9643 165.812 49.0488C165.887 49.1332 165.996 49.2071 166.14 49.2704C166.289 49.3284 166.47 49.3785 166.684 49.4208C166.939 49.4683 167.174 49.5316 167.387 49.6107C167.605 49.6846 167.781 49.8006 167.914 49.9589C168.053 50.112 168.122 50.3309 168.122 50.6157C168.127 50.8533 168.069 51.0643 167.946 51.249C167.824 51.4337 167.651 51.5787 167.427 51.6844C167.203 51.7845 166.939 51.8347 166.636 51.8347Z" fill="#10111A"/>
<path d="M162.656 51.8345C162.421 51.8345 162.205 51.8001 162.008 51.7316C161.816 51.6577 161.648 51.56 161.505 51.4386C161.361 51.3121 161.246 51.1696 161.161 51.0113L161.113 51.7395H160.602V46.041H161.161V48.4707C161.294 48.2438 161.486 48.0514 161.736 47.893C161.987 47.7347 162.293 47.6555 162.656 47.6555C163.05 47.6555 163.393 47.7478 163.686 47.9326C163.979 48.1119 164.203 48.36 164.358 48.6764C164.518 48.9879 164.597 49.344 164.597 49.7451C164.597 50.1459 164.518 50.5048 164.358 50.8212C164.198 51.1379 163.971 51.386 163.678 51.5653C163.391 51.7447 163.05 51.8345 162.656 51.8345ZM162.616 51.3516C162.898 51.3516 163.143 51.2856 163.351 51.1538C163.558 51.0219 163.724 50.8346 163.846 50.5918C163.969 50.3491 164.03 50.0669 164.03 49.7451C164.03 49.4179 163.969 49.1355 163.846 48.8981C163.724 48.6554 163.556 48.4681 163.343 48.3362C163.135 48.2043 162.892 48.1384 162.616 48.1384C162.338 48.1384 162.091 48.2043 161.872 48.3362C161.659 48.4681 161.491 48.6554 161.369 48.8981C161.252 49.1408 161.193 49.4231 161.193 49.7451C161.193 50.072 161.252 50.3571 161.369 50.5998C161.491 50.8371 161.659 51.0219 161.872 51.1538C162.091 51.2856 162.338 51.3516 162.616 51.3516Z" fill="#10111A"/>
<path d="M158.042 51.8347C157.717 51.8347 157.445 51.7765 157.227 51.6605C157.014 51.5445 156.854 51.3942 156.748 51.2095C156.646 51.0247 156.596 50.8215 156.596 50.6001C156.596 50.3256 156.665 50.0935 156.804 49.9035C156.947 49.7136 157.147 49.5712 157.403 49.4762C157.659 49.3813 157.957 49.3338 158.298 49.3338H159.385C159.385 49.0752 159.345 48.8563 159.265 48.6767C159.185 48.4974 159.068 48.3629 158.913 48.2731C158.759 48.1782 158.564 48.1307 158.33 48.1307C158.058 48.1307 157.824 48.1992 157.627 48.3365C157.43 48.4737 157.307 48.6741 157.259 48.9379H156.676C156.708 48.6582 156.804 48.4235 156.963 48.2336C157.128 48.0437 157.331 47.9013 157.571 47.8061C157.81 47.706 158.064 47.6558 158.33 47.6558C158.703 47.6558 159.007 47.7271 159.241 47.8695C159.475 48.0067 159.651 48.1966 159.768 48.4394C159.886 48.6821 159.944 48.9618 159.944 49.2784V51.7396H159.433L159.401 51.0116C159.353 51.1225 159.286 51.2279 159.201 51.3282C159.121 51.4283 159.025 51.5155 158.913 51.5892C158.807 51.6631 158.682 51.7211 158.538 51.7634C158.394 51.8109 158.229 51.8347 158.042 51.8347ZM158.106 51.3519C158.303 51.3519 158.479 51.3123 158.634 51.2331C158.793 51.1487 158.929 51.0406 159.041 50.9087C159.153 50.7768 159.238 50.6291 159.297 50.4654C159.355 50.2965 159.385 50.1225 159.385 49.9432V49.8006H158.338C158.056 49.8006 157.829 49.8349 157.659 49.9035C157.488 49.9722 157.366 50.0646 157.291 50.1806C157.217 50.2966 157.179 50.4312 157.179 50.5842C157.179 50.7371 157.214 50.8718 157.283 50.9878C157.352 51.0986 157.456 51.1884 157.595 51.2569C157.739 51.3203 157.909 51.3519 158.106 51.3519Z" fill="#10111A"/>
<path d="M155.461 51.7395V46.041H156.02V51.7395H155.461Z" fill="#10111A"/>
</g>
<path d="M60.924 19V10.6H63.624C64.296 10.6 64.848 10.712 65.28 10.936C65.712 11.16 66.032 11.464 66.24 11.848C66.448 12.224 66.552 12.652 66.552 13.132C66.552 13.604 66.448 14.032 66.24 14.416C66.032 14.8 65.712 15.104 65.28 15.328C64.856 15.552 64.304 15.664 63.624 15.664H61.932V19H60.924ZM61.932 14.812H63.612C64.316 14.812 64.808 14.66 65.088 14.356C65.376 14.044 65.52 13.636 65.52 13.132C65.52 12.604 65.376 12.192 65.088 11.896C64.808 11.592 64.316 11.44 63.612 11.44H61.932V14.812ZM70.2203 19.144C69.6363 19.144 69.1203 19.008 68.6723 18.736C68.2243 18.464 67.8763 18.08 67.6283 17.584C67.3803 17.088 67.2563 16.508 67.2563 15.844C67.2563 15.172 67.3803 14.592 67.6283 14.104C67.8843 13.608 68.2363 13.224 68.6843 12.952C69.1403 12.68 69.6603 12.544 70.2443 12.544C70.8363 12.544 71.3523 12.68 71.7923 12.952C72.2403 13.224 72.5883 13.608 72.8363 14.104C73.0843 14.592 73.2083 15.172 73.2083 15.844C73.2083 16.508 73.0803 17.088 72.8242 17.584C72.5763 18.08 72.2283 18.464 71.7803 18.736C71.3323 19.008 70.8123 19.144 70.2203 19.144ZM70.2203 18.28C70.5883 18.28 70.9203 18.192 71.2163 18.016C71.5123 17.832 71.7443 17.56 71.9123 17.2C72.0883 16.832 72.1763 16.38 72.1763 15.844C72.1763 15.3 72.0923 14.848 71.9243 14.488C71.7563 14.128 71.5243 13.86 71.2283 13.684C70.9403 13.5 70.6123 13.408 70.2443 13.408C69.8843 13.408 69.5563 13.5 69.2603 13.684C68.9643 13.86 68.7283 14.128 68.5523 14.488C68.3763 14.848 68.2883 15.3 68.2883 15.844C68.2883 16.38 68.3723 16.832 68.5403 17.2C68.7163 17.56 68.9483 17.832 69.2363 18.016C69.5323 18.192 69.8603 18.28 70.2203 18.28ZM75.7538 19L73.8938 12.688H74.9018L76.2818 17.716L77.7458 12.688H78.8858L80.3618 17.704L81.7298 12.688H82.7498L80.8898 19H79.8578L78.3218 13.744L76.7858 19H75.7538ZM86.2961 19.144C85.7361 19.144 85.2401 19.008 84.8081 18.736C84.3761 18.464 84.0361 18.08 83.7881 17.584C83.5481 17.088 83.4281 16.508 83.4281 15.844C83.4281 15.18 83.5481 14.6 83.7881 14.104C84.0361 13.608 84.3761 13.224 84.8081 12.952C85.2481 12.68 85.7521 12.544 86.3201 12.544C86.9281 12.544 87.4361 12.68 87.8441 12.952C88.2521 13.224 88.5601 13.588 88.7681 14.044C88.9761 14.5 89.0801 15 89.0801 15.544C89.0801 15.624 89.0801 15.704 89.0801 15.784C89.0801 15.864 89.0761 15.96 89.0681 16.072H84.1841V15.292H88.0961C88.0801 14.676 87.9001 14.208 87.5561 13.888C87.2201 13.56 86.8001 13.396 86.2961 13.396C85.9601 13.396 85.6481 13.48 85.3601 13.648C85.0801 13.808 84.8521 14.048 84.6761 14.368C84.5001 14.688 84.4121 15.088 84.4121 15.568V15.904C84.4121 16.432 84.5001 16.876 84.6761 17.236C84.8521 17.588 85.0801 17.852 85.3601 18.028C85.6481 18.204 85.9601 18.292 86.2961 18.292C86.7441 18.292 87.0961 18.208 87.3521 18.04C87.6081 17.864 87.7961 17.616 87.9161 17.296H88.9121C88.8161 17.648 88.6481 17.964 88.4081 18.244C88.1761 18.524 87.8801 18.744 87.5201 18.904C87.1681 19.064 86.7601 19.144 86.2961 19.144ZM90.477 19V12.688H91.389L91.461 13.84C91.605 13.552 91.793 13.312 92.025 13.12C92.257 12.928 92.537 12.784 92.865 12.688C93.201 12.592 93.577 12.544 93.993 12.544V13.6H93.369C93.129 13.6 92.897 13.632 92.673 13.696C92.449 13.76 92.245 13.864 92.061 14.008C91.885 14.152 91.745 14.348 91.641 14.596C91.537 14.844 91.485 15.156 91.485 15.532V19H90.477ZM97.5461 19.144C96.9861 19.144 96.4901 19.008 96.0581 18.736C95.6261 18.464 95.2861 18.08 95.0381 17.584C94.7981 17.088 94.6781 16.508 94.6781 15.844C94.6781 15.18 94.7981 14.6 95.0381 14.104C95.2861 13.608 95.6261 13.224 96.0581 12.952C96.4981 12.68 97.0021 12.544 97.5701 12.544C98.1781 12.544 98.6861 12.68 99.0941 12.952C99.5021 13.224 99.8101 13.588 100.018 14.044C100.226 14.5 100.33 15 100.33 15.544C100.33 15.624 100.33 15.704 100.33 15.784C100.33 15.864 100.326 15.96 100.318 16.072H95.4341V15.292H99.3461C99.3301 14.676 99.1501 14.208 98.8061 13.888C98.4701 13.56 98.0501 13.396 97.5461 13.396C97.2101 13.396 96.8981 13.48 96.6101 13.648C96.3301 13.808 96.1021 14.048 95.9261 14.368C95.7501 14.688 95.6621 15.088 95.6621 15.568V15.904C95.6621 16.432 95.7501 16.876 95.9261 17.236C96.1021 17.588 96.3301 17.852 96.6101 18.028C96.8981 18.204 97.2101 18.292 97.5461 18.292C97.9941 18.292 98.3461 18.208 98.6021 18.04C98.8581 17.864 99.0461 17.616 99.1661 17.296H100.162C100.066 17.648 99.8981 17.964 99.6581 18.244C99.4261 18.524 99.1301 18.744 98.7701 18.904C98.4181 19.064 98.0101 19.144 97.5461 19.144ZM104.331 19.144C103.771 19.144 103.275 19 102.843 18.712C102.411 18.424 102.075 18.032 101.835 17.536C101.595 17.032 101.475 16.464 101.475 15.832C101.475 15.192 101.595 14.628 101.835 14.14C102.075 13.644 102.411 13.256 102.843 12.976C103.275 12.688 103.775 12.544 104.343 12.544C104.839 12.544 105.263 12.644 105.615 12.844C105.975 13.044 106.259 13.324 106.467 13.684V10.36H107.475V19H106.563L106.479 17.992C106.359 18.192 106.199 18.38 105.999 18.556C105.807 18.732 105.571 18.876 105.291 18.988C105.019 19.092 104.699 19.144 104.331 19.144ZM104.463 18.268C104.863 18.268 105.211 18.172 105.507 17.98C105.803 17.78 106.031 17.5 106.191 17.14C106.351 16.772 106.431 16.34 106.431 15.844C106.431 15.348 106.351 14.92 106.191 14.56C106.031 14.192 105.803 13.912 105.507 13.72C105.211 13.52 104.863 13.42 104.463 13.42C104.087 13.42 103.751 13.52 103.455 13.72C103.159 13.912 102.927 14.192 102.759 14.56C102.591 14.92 102.507 15.348 102.507 15.844C102.507 16.34 102.591 16.772 102.759 17.14C102.927 17.5 103.159 17.78 103.455 17.98C103.751 18.172 104.087 18.268 104.463 18.268ZM115.547 19.144C115.163 19.144 114.831 19.088 114.551 18.976C114.279 18.856 114.047 18.708 113.855 18.532C113.671 18.356 113.519 18.184 113.399 18.016L113.315 19H112.403V10.36H113.411V13.684C113.603 13.308 113.887 13.024 114.263 12.832C114.639 12.64 115.059 12.544 115.523 12.544C116.099 12.544 116.603 12.684 117.035 12.964C117.467 13.244 117.803 13.632 118.043 14.128C118.283 14.616 118.403 15.18 118.403 15.82C118.403 16.452 118.283 17.02 118.043 17.524C117.803 18.028 117.467 18.424 117.035 18.712C116.611 19 116.115 19.144 115.547 19.144ZM115.415 18.268C115.791 18.268 116.123 18.172 116.411 17.98C116.707 17.78 116.939 17.5 117.107 17.14C117.283 16.772 117.371 16.34 117.371 15.844C117.371 15.348 117.283 14.92 117.107 14.56C116.939 14.192 116.707 13.912 116.411 13.72C116.123 13.52 115.791 13.42 115.415 13.42C115.015 13.42 114.667 13.52 114.371 13.72C114.075 13.912 113.847 14.192 113.687 14.56C113.527 14.92 113.447 15.348 113.447 15.844C113.447 16.34 113.527 16.772 113.687 17.14C113.847 17.5 114.075 17.78 114.371 17.98C114.667 18.172 115.015 18.268 115.415 18.268ZM120.095 21.64L121.523 18.328H121.175L118.811 12.688H119.903L121.859 17.548L123.899 12.688H124.943L121.139 21.64H120.095Z" fill="#10111A"/>
<defs>
<clipPath id="clip0_1081_141">
<rect width="124" height="29" fill="white" transform="translate(60 23)"/>
</clipPath>
</defs>
</svg>
