<svg width="80" height="80" viewBox="0 0 80 80" fill="none" xmlns="http://www.w3.org/2000/svg">
<path d="M6.66602 6.6665L73.3327 73.3332" stroke="#10111A" stroke-width="2" stroke-linecap="round" stroke-linejoin="round"/>
<path d="M27.834 8.96681C33.8694 6.60956 40.461 6.06241 46.8024 7.39229C53.1439 8.72217 58.9603 11.8714 63.5402 16.4548C68.1201 21.0382 71.2648 26.8571 72.5898 33.1996C73.9148 39.5421 73.3626 46.1332 71.0006 52.1668" stroke="#10111A" stroke-width="2" stroke-linecap="round" stroke-linejoin="round"/>
<path d="M63.6004 63.5999C60.5012 66.6991 56.822 69.1575 52.7727 70.8348C48.7234 72.5121 44.3834 73.3753 40.0004 73.3753C35.6175 73.3753 31.2775 72.5121 27.2282 70.8348C23.1789 69.1575 19.4996 66.6991 16.4004 63.5999C13.3012 60.5007 10.8428 56.8214 9.16555 52.7721C7.48828 48.7228 6.625 44.3828 6.625 39.9999C6.625 35.617 7.48828 31.277 9.16555 27.2277C10.8428 23.1784 13.3012 19.4991 16.4004 16.3999" stroke="#10111A" stroke-width="2" stroke-linecap="round" stroke-linejoin="round"/>
</svg>
